<svg xmlns="http://www.w3.org/2000/svg" viewBox="0 0 1200 800">
  <defs>
    <linearGradient id="bg" x1="0" y1="1" x2="1" y2="0"><stop stop-color="#122245"/><stop offset=".55" stop-color="#26183f"/><stop offset="1" stop-color="#502130"/></linearGradient>
    <radialGradient id="halo"><stop stop-color="#ffbe8c" stop-opacity=".75"/><stop offset="1" stop-color="#ff6b50" stop-opacity="0"/></radialGradient>
  </defs>
  <rect width="1200" height="800" rx="36" fill="url(#bg)"/>
  <circle cx="600" cy="390" r="250" fill="url(#halo)" opacity=".4"/>
  <g stroke="#fff" stroke-opacity=".23" stroke-width="3">
    <path d="M600 380L285 205M600 380L340 610M600 380L915 195M600 380L880 620M600 380L600 110"/>
  </g>
  <g fill="#f9f7f2" stroke="#fff" stroke-opacity=".22" stroke-width="6">
    <circle cx="600" cy="380" r="88" fill="#ff795d"/>
    <circle cx="285" cy="205" r="58" fill="#2e7dff"/>
    <circle cx="340" cy="610" r="58" fill="#8d59ff"/>
    <circle cx="915" cy="195" r="58" fill="#ffad4e"/>
    <circle cx="880" cy="620" r="58" fill="#4ac7b8"/>
    <circle cx="600" cy="110" r="58" fill="#e5578f"/>
  </g>
  <g fill="none" stroke="#11131a" stroke-width="8" stroke-linecap="round">
    <circle cx="600" cy="354" r="22"/><path d="M552 425c18-36 78-36 96 0"/>
    <circle cx="285" cy="187" r="15"/><path d="M253 234c12-25 52-25 64 0"/>
    <circle cx="340" cy="592" r="15"/><path d="M308 639c12-25 52-25 64 0"/>
    <circle cx="915" cy="177" r="15"/><path d="M883 224c12-25 52-25 64 0"/>
    <circle cx="880" cy="602" r="15"/><path d="M848 649c12-25 52-25 64 0"/>
    <circle cx="600" cy="92" r="15"/><path d="M568 139c12-25 52-25 64 0"/>
  </g>
</svg>
