<svg xmlns="http://www.w3.org/2000/svg" viewBox="0 0 1200 800">
  <defs>
    <linearGradient id="bg" x1="0" y1="0" x2="1" y2="1"><stop stop-color="#0d162b"/><stop offset="1" stop-color="#203b58"/></linearGradient>
    <filter id="glow"><feGaussianBlur stdDeviation="8" result="b"/><feMerge><feMergeNode in="b"/><feMergeNode in="SourceGraphic"/></feMerge></filter>
  </defs>
  <rect width="1200" height="800" rx="36" fill="url(#bg)"/>
  <path d="M120 500C210 420 290 390 380 420S540 510 625 445 760 275 870 315 1010 470 1090 390" fill="none" stroke="#5f82ac" stroke-width="6" stroke-dasharray="15 16" opacity=".7"/>
  <g stroke="#8ed8ff" stroke-opacity=".32" stroke-width="3">
    <path d="M190 500L380 420L625 445L870 315L1030 420"/>
    <path d="M380 420L520 240L870 315"/>
    <path d="M625 445L730 640L1030 420"/>
  </g>
  <g filter="url(#glow)">
    <g fill="#ff7b5f"><circle cx="190" cy="500" r="16"/><circle cx="625" cy="445" r="16"/><circle cx="1030" cy="420" r="16"/></g>
    <g fill="#55a5ff"><circle cx="380" cy="420" r="16"/><circle cx="870" cy="315" r="16"/></g>
    <g fill="#b270ff"><circle cx="520" cy="240" r="16"/><circle cx="730" cy="640" r="16"/></g>
  </g>
  <g fill="none" stroke="#fff" stroke-opacity=".34" stroke-width="4">
    <rect x="120" y="120" width="260" height="120" rx="24"/><rect x="820" y="560" width="260" height="120" rx="24"/>
    <path d="M160 165h160M160 200h110M860 605h160M860 640h120"/>
  </g>
</svg>
