<svg xmlns="http://www.w3.org/2000/svg" viewBox="0 0 1200 800">
  <defs>
    <linearGradient id="bg" x1="0" y1="0" x2="1" y2="1"><stop stop-color="#10131b"/><stop offset="1" stop-color="#23233a"/></linearGradient>
    <linearGradient id="g" x1="0" y1="0" x2="1" y2="0"><stop stop-color="#ff6b4a"/><stop offset=".5" stop-color="#8d59ff"/><stop offset="1" stop-color="#2e7dff"/></linearGradient>
    <filter id="blur"><feGaussianBlur stdDeviation="22"/></filter>
  </defs>
  <rect width="1200" height="800" rx="36" fill="url(#bg)"/>
  <circle cx="980" cy="120" r="180" fill="#6f52ff" opacity=".23" filter="url(#blur)"/>
  <circle cx="170" cy="690" r="170" fill="#ff5f46" opacity=".2" filter="url(#blur)"/>
  <path d="M180 400 C300 400 320 210 470 210 S650 590 790 590 890 400 1020 400" fill="none" stroke="url(#g)" stroke-width="8" stroke-linecap="round"/>
  <g fill="#111520" stroke="#ffffff" stroke-opacity=".18" stroke-width="2">
    <rect x="95" y="330" width="180" height="140" rx="24"/>
    <rect x="380" y="130" width="210" height="160" rx="24"/>
    <rect x="680" y="510" width="220" height="160" rx="24"/>
    <rect x="930" y="330" width="180" height="140" rx="24"/>
  </g>
  <g fill="none" stroke="#ffffff" stroke-opacity=".65" stroke-width="5" stroke-linecap="round">
    <path d="M145 370h80M145 400h105M145 430h62"/>
    <circle cx="485" cy="190" r="28"/><path d="M440 245h90M440 270h62"/>
    <path d="M735 555h110M735 590h78M735 625h130"/>
    <path d="M975 370h90M975 405h55M975 438h115"/>
  </g>
  <g fill="#fff">
    <circle cx="185" cy="400" r="12"/><circle cx="485" cy="210" r="12"/><circle cx="790" cy="590" r="12"/><circle cx="1020" cy="400" r="12"/>
  </g>
</svg>
